# xmcd
#
# Track frame offsets: 
#        150
#        16242
#        29147
#        45262
#        62842
#        79495
#        104417
#        120585
#        138560
#        169320
#        186685
#        200140
#
# Disc length: 2879 seconds
#
# Revision: 5
# Processed by: cddbd v1.5.2PL0 Copyright (c) Steve Scherf et al.
# Submitted via: ExactAudioCopyFreeDBPlugin 1.0
#
DISCID=b60b3d0c
DTITLE=Etta James - Blues To The Bone
DYEAR=2004
DGENRE=Blues
TTITLE0=Got My Mojo Working
TTITLE1=Don't Start Me To Talking
TTITLE2=Hush Hush
TTITLE3=Lil' Red Rooster
TTITLE4=That's Alright
TTITLE5=Crawlin' King Snake
TTITLE6=Dust My Broom
TTITLE7=The Sky is Crying
TTITLE8=Smokestack Lightnin'
TTITLE9=You Shook Me
TTITLE10=Driving Wheel
TTITLE11=Honey, Don't Tear My Clothes
EXTD=YEAR: 2004
EXTT0=
EXTT1=
EXTT2=
EXTT3=
EXTT4=
EXTT5=
EXTT6=
EXTT7=
EXTT8=
EXTT9=
EXTT10=
EXTT11=
PLAYORDER=
